<svg width="18" height="19" viewBox="0 0 18 19" fill="none" xmlns="http://www.w3.org/2000/svg">
<path d="M0 0.75V18.25H17.5V0.75H0ZM14.5312 4.92969L13.5938 5.82812C13.5156 5.86719 13.4766 5.98438 13.4766 6.0625V12.7031C13.4766 12.7812 13.5156 12.8984 13.5938 12.9375L14.4922 13.8359V14.0312H9.88281V13.8359L10.8594 12.9375C10.9375 12.8203 10.9375 12.8203 10.9375 12.6641V7.3125L8.28125 14.0312H7.92969L4.88281 7.3125V11.8047C4.84375 12 4.92188 12.1953 5.03906 12.3125L6.28906 13.8359V14.0312H2.77344V13.8359L3.98438 12.3125C4.14062 12.1953 4.17969 12 4.14062 11.8047V6.60938C4.17969 6.49219 4.10156 6.33594 4.02344 6.21875L2.92969 4.92969V4.69531H6.32812L8.94531 10.4766L11.2891 4.73438H14.5312V4.92969Z" fill="white"/>
</svg>
