<svg width="17" height="17" viewBox="0 0 17 17" fill="none" xmlns="http://www.w3.org/2000/svg">
<path d="M17 0H0V17H17V0Z" fill="white"/>
<path d="M11.0497 5.93704C8.74581 3.63311 5.68032 2.36426 2.41797 2.36426V4.76461C5.03916 4.76461 7.50188 5.78376 9.35247 7.63435C11.203 9.48494 12.2222 11.9477 12.2222 14.5689H14.6226C14.6225 11.3065 13.3537 8.24097 11.0497 5.93704Z" fill="#191919"/>
<path d="M2.39258 6.42676V8.82711C5.55887 8.82711 8.13488 11.4031 8.13488 14.5694H10.5352C10.5352 10.0795 6.88248 6.42676 2.39258 6.42676Z" fill="#191919"/>
<path d="M4.09714 14.6357C5.04663 14.6357 5.81634 13.866 5.81634 12.9165C5.81634 11.967 5.04663 11.1973 4.09714 11.1973C3.14764 11.1973 2.37793 11.967 2.37793 12.9165C2.37793 13.866 3.14764 14.6357 4.09714 14.6357Z" fill="#191919"/>
</svg>
